#!OML:ASF I:\Actors\actors\Patient Classification 2\Patient 1\Session 1\actor1.ASF
:FULLY-SPECIFIED
:DEGREES
234
root -0.352851 18.6635 5.76171 -0.38346 5.7483 -0.724553
lowerback 5.69947 2.68028 8.33672
upperback -2.54152 4.46185 3.79142
thorax -5.55204 1.97141 -1.14137
lowerneck -9.94534 -6.94473 -2.12986
upperneck 9.40373 -8.2444 -7.23515
head 4.22181 -4.56661 -2.40633
rclavicle 3.03147e-014 2.70347e-014
rhumerus 25.7998 3.02272 -45.8612
rradius 142.037
rwrist -16.7813
rhand -16.1559 -15.548
rfingers 7.12502
rthumb 10.0497 -45.2881
lclavicle 3.03147e-014 2.70347e-014
lhumerus -48.5792 -8.63607 94.7463
lradius 54.9735
lwrist -1.92023
lhand -9.94749 -27.348
lfingers 7.12502
lthumb 16.0342 2.00847
rfemur 0 0 0
rtibia 0
rfoot 0 0
rtoes 0
lfemur -5.51322 -3.06817 -14.1633
ltibia 23.3278
lfoot -19.3624 3.3128
ltoes -55.5225
235
root -0.36072 18.661 5.77799 -0.469637 6.15811 -0.79111
lowerback 5.11806 2.73546 8.01277
upperback -2.40612 4.43362 3.83717
thorax -5.10294 1.99067 -0.878909
lowerneck -10.091 -6.87457 -2.06815
upperneck 8.98893 -8.16356 -7.32775
head 4.1143 -4.52201 -2.43242
rclavicle -4.91992e-014 -5.24792e-014
rhumerus 26.2417 3.01493 -45.7269
rradius 142.419
rwrist -16.7391
rhand -16.638 -15.5076
rfingers 7.12502
rthumb 9.58467 -45.2696
lclavicle -4.91992e-014 -5.24792e-014
lhumerus -48.1035 -8.17692 94.7339
lradius 54.9046
lwrist -1.83604
lhand -9.81601 -27.1356
lfingers 7.12502
lthumb 16.1608 2.21065
rfemur 0 0 0
rtibia 0
rfoot 0 0
rtoes 0
lfemur -5.49373 -3.2673 -14.063
ltibia 23.3779
lfoot -19.3413 3.21079
ltoes -55.6895
236
root -0.367347 18.6579 5.79545 -0.588039 6.52046 -0.832915
lowerback 4.94921 2.87282 7.9578
upperback -2.52363 4.59576 3.68842
thorax -5.11054 2.0677 -1.00952
lowerneck -10.071 -6.89927 -2.03902
upperneck 8.83698 -8.21431 -7.27673
head 4.06359 -4.53885 -2.41889
rclavicle -1.09332e-014 -4.77083e-015
rhumerus 26.3321 3.13694 -45.7705
rradius 142.392
rwrist -16.3426
rhand -16.88 -15.3682
rfingers 7.12502
rthumb 9.35113 -45.1408
lclavicle -1.09332e-014 -4.77083e-015
lhumerus -48.081 -8.09057 94.7099
lradius 54.8317
lwrist -1.8486
lhand -9.75553 -26.9655
lfingers 7.12502
lthumb 16.2191 2.37606
rfemur 0 0 0
rtibia 0
rfoot 0 0
rtoes 0
lfemur -5.4228 -3.48058 -14.007
ltibia 23.4451
lfoot -19.3531 3.17369
ltoes -55.9292
237
root -0.373323 18.6534 5.81264 -0.782083 6.82372 -0.874808
lowerback 4.8626 3.02365 7.92278
upperback -2.61162 4.7852 3.55945
thorax -5.13162 2.15779 -1.13606
lowerneck -10.0513 -6.93198 -2.08397
upperneck 8.75507 -8.26295 -7.20615
head 4.03869 -4.55769 -2.39022
rclavicle -3.54831e-014 -1.59028e-015
rhumerus 26.6011 3.37261 -45.8715
rradius 142.061
rwrist -15.8999
rhand -17.0954 -15.1674
rfingers 7.12502
rthumb 9.14325 -44.9492
lclavicle -3.54831e-014 -1.59028e-015
lhumerus -48.0627 -7.95188 94.7179
lradius 54.7022
lwrist -1.96797
lhand -9.8097 -26.9913
lfingers 7.12502
lthumb 16.1669 2.35449
rfemur 0 0 0
rtibia 0
rfoot 0 0
rtoes 0
lfemur -5.25203 -3.69988 -13.962
ltibia 23.5182
lfoot -19.3864 3.08891
ltoes -55.9767
238
root -0.381449 18.6505 5.82438 -0.923444 7.1579 -0.909708
lowerback 4.83544 3.16407 7.89669
upperback -2.74611 4.97021 3.39625
thorax -5.23184 2.24074 -1.30747
lowerneck -10.0176 -6.93251 -2.08826
upperneck 8.70983 -8.27219 -7.14188
head 4.02184 -4.55685 -2.36788
rclavicle -8.16011e-014 -5.24792e-014
rhumerus 26.7035 3.7039 -46.1003
rradius 141.832
rwrist -15.4967
rhand -17.4889 -15.0619
rfingers 7.12502
rthumb 8.76353 -44.86
lclavicle -8.16011e-014 -5.24792e-014
lhumerus -48.1068 -7.86511 94.6973
lradius 54.6281
lwrist -2.05112
lhand -9.82436 -27.0342
lfingers 7.12502
lthumb 16.1528 2.31275
rfemur 0 0 0
rtibia 0
rfoot 0 0
rtoes 0
lfemur -5.15793 -3.89078 -13.9126
ltibia 23.5805
lfoot -19.3838 2.97978
ltoes -56.0114
239
root -0.390718 18.649 5.83449 -0.999924 7.51643 -0.888849
lowerback 5.06405 3.31896 7.88192
upperback -3.08845 5.21558 3.13987
thorax -5.68417 2.33281 -1.61086
lowerneck -9.88866 -6.9253 -2.09731
upperneck 8.81325 -8.27192 -7.02963
head 4.03739 -4.55099 -2.33027
rclavicle -3.93594e-014 -6.99722e-014
rhumerus 26.3779 4.20054 -46.4531
rradius 141.634
rwrist -15.0131
rhand -17.9059 -14.6474
rfingers 7.12502
rthumb 8.36116 -44.462
lclavicle -3.93594e-014 -6.99722e-014
lhumerus -48.5175 -7.97254 94.6878
lradius 54.6601
lwrist -1.99644
lhand -9.82466 -26.9006
lfingers 7.12502
lthumb 16.1525 2.44633
rfemur 0 0 0
rtibia 0
rfoot 0 0
rtoes 0
lfemur -5.13845 -4.1 -13.9232
ltibia 23.6316
lfoot -19.3596 2.93139
ltoes -56.143
240
root -0.400307 18.6473 5.84585 -1.0944 7.86046 -0.8565
lowerback 5.08164 3.45916 7.7437
upperback -3.25038 5.39757 2.96836
thorax -5.84607 2.41502 -1.73521
lowerneck -9.87454 -6.88717 -2.00317
upperneck 8.85184 -8.22704 -7.07594
head 4.04204 -4.52887 -2.3565
rclavicle -2.34566e-014 -4.77083e-014
rhumerus 26.297 4.69618 -46.7931
rradius 141.332
rwrist -14.3797
rhand -18.1511 -14.0881
rfingers 7.12502
rthumb 8.12446 -43.9119
lclavicle -2.34566e-014 -4.77083e-014
lhumerus -48.67 -7.92977 94.6879
lradius 54.6257
lwrist -1.94425
lhand -9.83266 -26.7391
lfingers 7.12502
lthumb 16.1448 2.60847
rfemur 0 0 0
rtibia 0
rfoot 0 0
rtoes 0
lfemur -5.09764 -4.35624 -13.9463
ltibia 23.6817
lfoot -19.3349 2.89374
ltoes -56.173
241
root -0.409087 18.6454 5.8565 -1.18842 8.15064 -0.894412
lowerback 5.00552 3.59379 7.65872
upperback -3.33136 5.56216 2.84968
thorax -5.8701 2.49481 -1.82282
lowerneck -9.94745 -6.8318 -1.9135
upperneck 8.93758 -8.1471 -7.16777
head 4.07493 -4.49454 -2.39889
rclavicle -9.06458e-014 -1.43125e-014
rhumerus 26.3314 5.25074 -47.2094
rradius 141.013
rwrist -13.7336
rhand -18.2498 -13.7164
rfingers 7.12502
rthumb 8.02927 -43.5439
lclavicle -9.06458e-014 -1.43125e-014
lhumerus -48.6826 -7.81304 94.6553
lradius 54.5176
lwrist -1.91152
lhand -9.8253 -26.771
lfingers 7.12502
lthumb 16.1519 2.576
rfemur 0 0 0
rtibia 0
rfoot 0 0
rtoes 0
lfemur -5.06106 -4.59028 -13.8918
ltibia 23.7326
lfoot -19.3404 2.87801
ltoes -56.1078
242
root -0.416738 18.6435 5.86597 -1.27049 8.3881 -0.99107
lowerback 4.90062 3.73952 7.66825
upperback -3.39434 5.74408 2.73129
thorax -5.84859 2.58136 -1.95957
lowerneck -9.92991 -6.75426 -1.71844
upperneck 8.92293 -8.06033 -7.27936
head 4.05703 -4.45083 -2.45613
rclavicle -7.15625e-015 -4.77083e-015
rhumerus 26.3571 5.86384 -47.6873
rradius 140.734
rwrist -13.2514
rhand -18.41 -13.3177
rfingers 7.12502
rthumb 7.87464 -43.151
lclavicle -7.15625e-015 -4.77083e-015
lhumerus -48.68 -7.74465 94.6061
lradius 54.4292
lwrist -1.86002
lhand -9.83274 -26.8501
lfingers 7.12502
lthumb 16.1447 2.49753
rfemur 0 0 0
rtibia 0
rfoot 0 0
rtoes 0
lfemur -5.04346 -4.77861 -13.7789
ltibia 23.7888
lfoot -19.3881 2.90905
ltoes -56.1541
243
root -0.425343 18.6421 5.87438 -1.33519 8.62309 -1.07026
lowerback 4.75587 3.89006 7.63836
upperback -3.41508 5.92292 2.62806
thorax -5.76383 2.67191 -2.05333
lowerneck -9.91328 -6.64769 -1.3165
upperneck 8.85731 -7.94177 -7.64339
head 4.00594 -4.39781 -2.61819
rclavicle -1.45113e-014 -4.29375e-014
rhumerus 26.3873 6.51467 -48.0148
rradius 140.497
rwrist -12.849
rhand -18.589 -13.0313
rfingers 7.12502
rthumb 7.70186 -42.8711
lclavicle -1.45113e-014 -4.29375e-014
lhumerus -48.6825 -7.60477 94.58
lradius 54.4159
lwrist -1.90896
lhand -9.75684 -26.8612
lfingers 7.12502
lthumb 16.2178 2.48049
rfemur 0 0 0
rtibia 0
rfoot 0 0
rtoes 0
lfemur -5.04573 -5.03153 -13.6888
ltibia 23.8552
lfoot -19.4434 2.99234
ltoes -56.2757
244
root -0.434476 18.641 5.88269 -1.38589 8.84557 -1.13362
lowerback 4.59152 4.02683 7.57924
upperback -3.40353 6.0793 2.56437
thorax -5.64218 2.75573 -2.08463
lowerneck -9.98477 -6.52417 -1.19476
upperneck 8.90038 -7.76319 -7.87135
head 4.02326 -4.32047 -2.70013
rclavicle 4.05521e-014 1.59028e-015
rhumerus 26.2614 7.10453 -48.1893
rradius 140.511
rwrist -12.6166
rhand -18.604 -12.8902
rfingers 7.12502
rthumb 7.68737 -42.7305
lclavicle 4.05521e-014 1.59028e-015
lhumerus -48.727 -7.34636 94.5812
lradius 54.4596
lwrist -1.96675
lhand -9.67147 -26.8129
lfingers 7.12502
lthumb 16.3 2.52207
rfemur 0 0 0
rtibia 0
rfoot 0 0
rtoes 0
lfemur -5.05018 -5.26806 -13.6112
ltibia 23.9193
lfoot -19.4383 3.04799
ltoes -56.3531
245
root -0.44366 18.6396 5.89034 -1.45205 9.02358 -1.20131
lowerback 4.44471 4.16754 7.55663
upperback -3.38933 6.24413 2.47967
thorax -5.52122 2.84175 -2.15835
lowerneck -9.98978 -6.41128 -1.23107
upperneck 8.97106 -7.60323 -7.83907
head 4.0545 -4.24233 -2.67812
rclavicle -2.79292e-014 -3.02153e-014
rhumerus 25.8724 7.5551 -48.3661
rradius 140.773
rwrist -12.5767
rhand -18.5315 -12.9127
rfingers 7.12502
rthumb 7.75735 -42.7504
lclavicle -2.79292e-014 -3.02153e-014
lhumerus -48.7004 -7.18432 94.5441
lradius 54.3686
lwrist -1.97335
lhand -9.682 -26.7441
lfingers 7.12502
lthumb 16.2899 2.59167
rfemur 0 0 0
rtibia 0
rfoot 0 0
rtoes 0
lfemur -5.03775 -5.35317 -13.5163
ltibia 23.9684
lfoot -19.3803 3.01254
ltoes -56.4682
246
root -0.453329 18.6376 5.89642 -1.54241 9.16047 -1.24469
lowerback 4.32225 4.35844 7.48746
upperback -3.36815 6.4726 2.35247
thorax -5.40049 2.96033 -2.25564
lowerneck -9.91969 -6.33765 -0.969113
upperneck 9.01972 -7.52988 -7.95176
head 4.04527 -4.20356 -2.74713
rclavicle 7.15625e-015 2.46493e-014
rhumerus 25.4927 7.9035 -48.5226
rradius 140.913
rwrist -12.468
rhand -18.4602 -13.3599
rfingers 7.12502
rthumb 7.82622 -43.195
lclavicle 7.15625e-015 2.46493e-014
lhumerus -48.5189 -7.26491 94.5003
lradius 54.0738
lwrist -2.01033
lhand -9.7322 -26.7159
lfingers 7.12502
lthumb 16.2415 2.62376
rfemur 0 0 0
rtibia 0
rfoot 0 0
rtoes 0
lfemur -4.98634 -5.45937 -13.4581
ltibia 24.0082
lfoot -19.3819 3.04204
ltoes -56.658
247
root -0.462602 18.6367 5.9005 -1.61583 9.3049 -1.27517
lowerback 4.29202 4.77813 7.64874
upperback -3.64145 7.03307 1.86733
thorax -5.54456 3.20894 -2.88955
lowerneck -8.8799 -6.4963 0.0238742
upperneck 8.89759 -7.89999 -8.18532
head 3.76891 -4.34598 -2.94387
rclavicle -4.01545e-014 -2.62396e-014
rhumerus 24.1595 7.91198 -48.9543
rradius 141.014
rwrist -12.2085
rhand -18.4311 -13.8196
rfingers 7.12502
rthumb 7.85422 -43.6537
lclavicle -4.01545e-014 -2.62396e-014
lhumerus -48.9762 -8.41961 94.4157
lradius 53.9012
lwrist -1.9399
lhand -9.75147 -26.6265
lfingers 7.12502
lthumb 16.223 2.71471
rfemur 0 0 0
rtibia 0
rfoot 0 0
rtoes 0
lfemur -4.94425 -5.6943 -13.43
ltibia 24.0504
lfoot -19.4254 3.1876
ltoes -56.7632
248
root -0.471609 18.6372 5.90337 -1.6674 9.47713 -1.29648
lowerback 4.28958 4.94073 7.65241
upperback -3.71323 7.24615 1.70613
thorax -5.57672 3.30781 -3.07441
lowerneck -8.603 -6.41346 0.34215
upperneck 8.96595 -7.81323 -8.38059
head 3.72614 -4.29942 -3.03854
rclavicle 2.09718e-014 3.4191e-014
rhumerus 23.8575 8.15089 -49.205
rradius 140.974
rwrist -12.329
rhand -18.3738 -13.9948
rfingers 7.12502
rthumb 7.90957 -43.8268
lclavicle 2.09718e-014 3.4191e-014
lhumerus -49.1346 -8.55845 94.3574
lradius 53.8143
lwrist -1.91926
lhand -9.77234 -26.5408
lfingers 7.12502
lthumb 16.2029 2.80207
rfemur 0 0 0
rtibia 0
rfoot 0 0
rtoes 0
lfemur -4.9461 -5.90598 -13.3974
ltibia 24.1016
lfoot -19.4359 3.25304
ltoes -56.7129
